PathFileType	4	(X/Y/Z)	Run_200 02
DataRate	CameraRate	NumFrames	NumMarkers	Units	OrigDataRate	OrigDataStartFrame	OrigNumFrames
100	100	6	45	mm	100	433	137
Frame#	Time	RASI			LPSI			RTH1			RTH2			RTH3			LTH1			LTH2			LTH3			RTB1			RTB2			RTB3			RLMAL			RMMAL			LTB1			LTB2			LTB3			RCAL			RTOE			RMT5			LCAL			LTOE			LMT5			LACR			RACR			CLAV			C7			LPSH			RUA1			RUA2			RUA3			RLEL			RMEL			LUA1			LUA2			LUA3			LLEL			LMEL			RFAsuperior			RFAradius			LFAsuperior			LFAradius			LFAulna			LASI			RFAulna			RPSI		
		X1	Y1	Z1	X2	Y2	Z2	X3	Y3	Z3	X4	Y4	Z4	X5	Y5	Z5	X6	Y6	Z6	X7	Y7	Z7	X8	Y8	Z8	X9	Y9	Z9	X10	Y10	Z10	X11	Y11	Z11	X12	Y12	Z12	X13	Y13	Z13	X14	Y14	Z14	X15	Y15	Z15	X16	Y16	Z16	X17	Y17	Z17	X18	Y18	Z18	X19	Y19	Z19	X20	Y20	Z20	X21	Y21	Z21	X22	Y22	Z22	X23	Y23	Z23	X24	Y24	Z24	X25	Y25	Z25	X26	Y26	Z26	X27	Y27	Z27	X28	Y28	Z28	X29	Y29	Z29	X30	Y30	Z30	X31	Y31	Z31	X32	Y32	Z32	X33	Y33	Z33	X34	Y34	Z34	X35	Y35	Z35	X36	Y36	Z36	X37	Y37	Z37	X38	Y38	Z38	X39	Y39	Z39	X40	Y40	Z40	X41	Y41	Z41	X42	Y42	Z42	X43	Y43	Z43	X44	Y44	Z44	X45	Y45	Z45	

433	  4.330000	1023.894435	1056.328220	-313.372360	844.122676	1090.321242	-464.349341	959.035408	784.156750	-275.107381	1031.753186	720.708884	-312.910219	966.802582	617.899845	-312.913959	941.624887	839.044846	-596.554044	1039.047518	748.456978	-589.415238	1010.298889	640.212077	-574.119633	897.377571	405.357903	-343.125190	831.502555	414.533162	-294.038327	733.096148	326.514945	-318.820443	618.430661	301.146041	-285.983721	639.015951	289.237902	-367.778853	1072.847694	410.285053	-529.491457	975.797320	319.111098	-549.769787	1025.495758	225.344579	-499.273546	567.764539	339.830333	-343.573092	647.606294	130.571075	-330.554725	602.338804	178.729394	-257.740509	896.306192	 89.060526	-446.989401	1123.983905	 73.719051	-452.759683	1065.597977	 54.211091	-522.195388	945.373293	1561.532824	-580.672259	997.931665	1537.718353	-269.619487	1045.603665	1481.819317	-412.890784	934.451326	1575.837100	-418.796150	860.348293	1534.500943	-570.208128	965.094776	1391.360042	-175.958565	884.020585	1345.352287	-168.876792	899.340662	1288.829237	-129.765603	915.691544	1220.515800	-114.116415	860.200451	1212.337478	-183.081636	825.622267	1475.359155	-626.031358	759.832719	1418.755457	-581.096206	733.212637	1382.068026	-641.445568	698.405227	1307.661912	-663.731654	701.080951	1296.407734	-575.620638	958.885516	1166.672778	-156.405669	1099.133314	1201.441194	-299.133698	758.108961	1229.629358	-651.696336	934.471420	1231.768693	-647.015381	914.955361	1166.219904	-649.263686	1005.792663	1069.240502	-547.007763	1093.630812	1135.716309	-279.451281	852.135185	1084.400550	-375.125855	
434	  4.340000	1023.790105	1048.699818	-314.086744	842.819791	1083.613890	-465.665315	963.621272	777.891135	-275.870858	1039.820530	716.166399	-311.113963	977.829914	611.807165	-313.692990	939.369546	832.135936	-597.113380	1034.942881	739.940395	-591.084819	1005.637077	632.686581	-572.449808	912.000841	403.302567	-343.432695	845.869527	412.720622	-294.840628	746.474578	326.296509	-320.209633	631.342563	303.197159	-288.081594	652.290158	290.128084	-369.491914	1065.676580	403.403443	-526.589468	966.495013	314.771534	-548.232934	1011.426904	220.558713	-495.860916	580.667060	341.171396	-346.730659	661.026279	132.546889	-329.790233	615.494202	181.886744	-258.033540	877.000673	 88.420062	-445.990869	1105.568268	 72.291871	-452.060931	1046.392779	 54.514979	-521.554607	946.527939	1553.273597	-583.133220	996.113388	1530.025725	-270.143085	1045.962290	1474.254627	-413.534828	934.658846	1568.689234	-421.161114	861.676804	1524.343918	-573.826920	959.431118	1384.017933	-176.305837	877.344346	1339.228919	-171.635496	890.808031	1283.253822	-130.867936	905.880568	1214.754377	-113.572395	852.867603	1206.836112	-184.083594	828.880330	1462.756336	-631.126031	763.017151	1404.961901	-588.103008	739.323313	1367.037584	-648.615269	706.638196	1292.740136	-671.424071	707.602893	1281.613194	-583.290081	948.530382	1157.778008	-153.000141	1094.807014	1181.471272	-292.046433	766.748924	1215.288152	-658.047035	942.900469	1218.849165	-649.721321	923.987169	1153.107787	-652.926638	1005.259034	1061.375402	-548.989403	1086.284158	1116.971871	-269.402601	850.050336	1076.913126	-375.341158	
435	  4.350000	1023.916914	1041.273872	-316.069504	841.885180	1077.701237	-466.843840	967.973544	772.522610	-276.663230	1047.774004	712.714301	-309.300439	989.176632	606.828538	-313.840998	935.578050	826.509864	-597.478986	1030.560902	733.086501	-591.631455	1000.587731	626.545494	-570.895056	927.243059	401.882009	-344.077354	861.065363	410.801667	-295.635216	761.146581	325.454890	-321.686193	645.781126	303.857666	-290.005939	667.084082	289.881469	-371.179098	1058.402892	397.390508	-524.661351	956.868567	311.452403	-547.329028	997.532375	216.796825	-493.462778	594.840919	340.860898	-349.707165	676.799241	133.306209	-329.243344	630.849722	183.531306	-258.357311	858.222990	 88.889922	-445.153940	1087.110650	 70.861417	-451.463981	1027.256140	 54.680674	-521.110752	947.739322	1545.527351	-585.514574	993.990397	1522.945082	-270.549765	1046.250001	1467.380158	-413.840235	935.031072	1562.352217	-423.362101	863.051159	1515.041837	-577.757202	953.505971	1376.973733	-176.671195	870.507115	1333.114158	-174.624761	882.011371	1277.810860	-132.176842	895.892330	1209.219777	-113.315269	845.446762	1201.432318	-185.325317	832.971334	1450.060868	-636.097691	766.774208	1390.910240	-595.299545	746.334637	1351.580017	-655.846072	715.974048	1277.589361	-679.181424	715.207654	1266.375556	-591.279783	937.808346	1149.111331	-149.777061	1089.759381	1160.876275	-284.420258	776.496835	1200.580136	-664.355910	952.472531	1205.208659	-652.452584	933.860261	1139.408410	-656.553463	1004.643004	1054.181591	-550.522141	1078.074713	1098.049349	-258.927418	848.998999	1070.100393	-376.091759	
436	  4.360000	1023.590611	1034.556032	-318.797701	841.643707	1072.724972	-467.602542	972.285850	768.306034	-277.332800	1055.521628	710.697789	-307.753578	1000.792221	603.264225	-313.492442	930.996077	822.152446	-597.757682	1026.862647	728.329407	-591.351047	996.642522	622.087614	-570.610699	943.056262	400.683654	-344.713764	876.888488	409.162962	-296.437889	777.025657	324.232038	-322.888450	661.554388	303.132245	-291.675033	683.302539	288.580318	-372.759660	1050.736890	392.320480	-523.834936	946.289998	309.934841	-547.698995	983.062223	214.159270	-492.729855	610.061105	338.889253	-352.329553	694.992773	132.971700	-328.831421	648.347605	183.622415	-258.592831	838.921116	 89.363989	-444.866184	1067.829525	 69.919500	-451.296707	1007.659216	 54.607340	-521.054394	949.234729	1538.494359	-587.721562	991.718434	1516.876968	-270.843547	1046.454368	1461.512854	-413.819269	935.452076	1556.986131	-425.240442	864.763024	1507.053818	-581.865394	947.474898	1370.854088	-177.105746	863.665125	1327.515707	-177.833192	873.162890	1272.925402	-133.819087	885.993833	1204.383241	-113.564304	838.113984	1196.340364	-186.932995	837.987940	1437.824609	-640.518838	771.081394	1377.080644	-602.406540	754.371990	1336.254191	-663.092871	726.833087	1262.612944	-686.947565	724.060130	1251.039240	-599.348104	926.892422	1141.160442	-146.864741	1083.794948	1140.072239	-276.566151	787.542301	1186.050364	-670.520777	963.305471	1191.411579	-654.970261	944.799271	1125.640947	-659.972594	1004.485998	1047.978790	-551.441565	1068.931922	1079.362998	-248.334547	849.725408	1064.449482	-377.654397	
437	  4.370000	1021.749429	1028.965611	-320.515942	841.774653	1068.755410	-467.840279	976.705306	765.319565	-277.833468	1063.017744	710.280081	-306.712683	1012.579422	601.270427	-312.955312	926.787990	818.766939	-598.178519	1023.861882	725.058937	-591.042008	993.803203	618.777449	-571.836974	959.321912	399.659383	-345.172550	893.121532	408.014081	-297.230381	794.006103	322.771902	-323.701326	678.489135	301.035573	-293.082905	700.756187	286.263492	-374.143620	1042.333031	388.159175	-523.710915	935.131995	309.654469	-549.092060	967.895814	212.416421	-493.266726	626.135948	335.274583	-354.479887	715.632634	131.702389	-328.438318	667.915113	182.181430	-258.700873	819.030240	 89.686036	-445.238393	1047.933744	 69.400554	-451.517862	987.682833	 54.282709	-521.375807	951.195913	1532.326336	-589.659369	989.418288	1512.061263	-271.063687	1046.517880	1456.792543	-413.566223	935.723865	1552.600497	-426.812644	867.072512	1500.340023	-585.819137	941.551155	1366.191917	-177.616787	857.052597	1323.009625	-181.277202	864.653814	1269.068976	-135.915313	876.558746	1200.707459	-114.447017	831.278144	1191.909313	-189.037173	843.730059	1426.528101	-644.042798	775.901393	1363.818443	-609.113750	763.503272	1321.729206	-670.214012	739.587535	1248.310205	-694.592617	734.178274	1236.087391	-607.256493	915.999769	1134.379824	-144.329970	1076.758243	1119.639819	-268.697342	800.147343	1172.320416	-676.643627	975.343346	1178.353809	-656.825336	957.019684	1112.573835	-662.972000	1004.655689	1042.852339	-551.757762	1058.738313	1061.442045	-237.633380	851.058570	1060.213847	-379.192525	
438	  4.380000	1018.223553	1024.804266	-319.865663	841.468609	1065.771447	-467.614927	981.185122	763.518823	-278.256062	1070.240734	711.431907	-306.211033	1024.368918	600.881553	-312.515121	923.668539	816.059181	-598.930923	1020.804423	722.201073	-591.164138	990.568111	615.772457	-573.598609	975.825297	399.197377	-345.521198	909.576338	407.319511	-298.011714	811.927072	321.032428	-324.319028	696.438931	297.630694	-294.297531	719.232526	282.947920	-375.337071	1032.806795	384.581649	-523.726706	923.662501	309.295062	-550.473933	952.142930	211.032053	-493.963802	642.909113	330.028600	-356.178093	738.701375	129.631125	-327.935888	689.495036	179.333553	-258.749265	798.946984	 90.134335	-445.896855	1027.935821	 69.031319	-451.851477	967.600852	 53.835632	-521.824383	953.656075	1527.202366	-591.274471	987.244776	1508.535966	-271.238008	1046.365733	1453.187298	-413.201953	935.717482	1549.193550	-428.173860	869.974580	1494.615121	-589.304780	935.971735	1363.191736	-178.171718	850.929161	1320.083029	-184.936410	856.880730	1266.684780	-138.411157	867.824290	1198.539993	-115.812438	825.254673	1188.747644	-191.573181	849.824354	1416.582770	-646.701313	781.212498	1351.466772	-615.206887	773.596051	1308.684763	-676.892297	754.067864	1235.266732	-701.846638	745.243954	1222.203735	-614.746741	905.257862	1129.152372	-142.098487	1068.654815	1100.446753	-260.784373	814.486947	1159.987369	-682.789957	988.416342	1167.209085	-657.675708	970.586101	1101.283655	-665.230606	1004.391337	1038.726877	-551.567130	1047.356262	1045.003034	-226.918099	851.136673	1057.306856	-379.699789	
